Coordinates
version=1
nRows=7
nColumns=40
inDegrees=yes

Units are S.I. units (second, meters, Newtons, ...)
If the header above contains a line with 'inDegrees', this indicates whether rotational values are in degrees (yes) or radians (no).

endheader
time	pelvis_tilt	pelvis_list	pelvis_rotation	pelvis_tx	pelvis_ty	pelvis_tz	hip_flexion_r	hip_adduction_r	hip_rotation_r	knee_angle_r	knee_angle_r_beta	ankle_angle_r	subtalar_angle_r	mtp_angle_r	hip_flexion_l	hip_adduction_l	hip_rotation_l	knee_angle_l	knee_angle_l_beta	ankle_angle_l	subtalar_angle_l	mtp_angle_l	lumbar_extension	lumbar_bending	lumbar_rotation	arm_flex_r	arm_add_r	arm_rot_r	elbow_flex_r	pro_sup_r	wrist_flex_r	wrist_dev_r	arm_flex_l	arm_add_l	arm_rot_l	elbow_flex_l	pro_sup_l	wrist_flex_l	wrist_dev_l
      0.00000000	     28.81215820	      0.18468008	     -0.98334160	      0.02119054	      1.34066001	     -0.00089397	     22.77117738	    -12.00106528	     -9.39478146	     85.73153317	      1.49629753	    -16.81048533	    -21.58526957	      0.00000000	     18.75009502	     -5.10980228	     -4.96971863	     53.79956404	      0.93897953	    -12.48664812	    -24.64383113	      0.00000000	    -77.54840957	      4.80505332	      2.39736656	     41.67973591	     -8.50482855	    -23.62612682	     45.30815778	     49.64058163	      0.00000000	      0.00000000	     48.73157064	     16.17791566	    -29.14782709	     46.38830106	     47.67504299	      0.00000000	      0.00000000
      0.01700000	     28.63478258	     -0.48974376	     -0.62113069	      0.02153207	      1.34031209	     -0.00188908	     24.42364558	    -12.14030499	    -10.50859516	     87.79093758	      1.53224091	    -16.01923299	    -21.92794476	      0.00000000	     16.63793112	     -5.82113296	     -4.60338408	     50.70225723	      0.88492133	    -13.14534722	    -23.67258914	      0.00000000	    -77.36438149	      5.35804833	      2.96113803	     41.70883741	     -8.38144165	    -23.59012734	     45.21332131	     49.72740084	      0.00000000	      0.00000000	     48.69981732	     15.94898830	    -29.10604493	     46.24379083	     47.94536841	      0.00000000	      0.00000000
      0.03300000	     28.54818536	     -1.15421471	     -0.36884937	      0.02194613	      1.34003656	     -0.00275576	     25.99163870	    -12.26809484	    -11.50675654	     89.80142837	      1.56733060	    -15.27443381	    -22.24513202	      0.00000000	     14.35325291	     -6.57023106	     -4.42670876	     47.39793291	      0.82724999	    -14.10397523	    -22.72276426	      0.00000000	    -77.25871002	      5.80784446	      3.53261286	     41.71668626	     -8.23236365	    -23.60442816	     45.13734712	     49.81334158	      0.00000000	      0.00000000	     48.66936623	     15.75182984	    -29.13851372	     46.09424099	     48.17333253	      0.00000000	      0.00000000
      0.05000000	     28.46168374	     -1.74554824	     -0.20623388	      0.02234575	      1.33973531	     -0.00341398	     27.71190656	    -12.36919133	    -12.12820797	     91.64884265	      1.59957406	    -14.61622189	    -22.47665269	      0.00000000	     12.15783814	     -7.24845309	     -4.44082559	     44.42835388	      0.77542106	    -15.10295483	    -21.91417993	      0.00000000	    -77.16080299	      6.19667472	      4.02439988	     41.76489300	     -8.09557147	    -23.59900357	     45.05817282	     49.89670302	      0.00000000	      0.00000000	     48.61788846	     15.57439709	    -29.19502703	     45.99674211	     48.32300076	      0.00000000	      0.00000000
      0.06700000	     28.41992851	     -2.14389408	     -0.22975818	      0.02263372	      1.33953886	     -0.00372541	     29.70028367	    -12.48429312	    -12.08658865	     93.32761352	      1.62887414	    -14.11395284	    -22.51253658	      0.00000000	      9.97120810	     -7.76042546	     -4.89186812	     41.89843573	      0.73126565	    -16.07746143	    -21.20147941	      0.00000000	    -77.11567115	      6.43575403	      4.32468678	     41.87320086	     -7.95840142	    -23.53164581	     44.98144312	     50.00498919	      0.00000000	      0.00000000	     48.56225435	     15.39686390	    -29.29230330	     45.97415376	     48.41470385	      0.00000000	      0.00000000
      0.08300000	     28.40014462	     -2.36809374	     -0.51082330	      0.02295169	      1.33936694	     -0.00373820	     31.89936276	    -12.57492644	    -11.45497024	     94.83706354	      1.65521901	    -13.73902859	    -22.29970988	      0.00000000	      7.78158144	     -8.09586277	     -5.79362070	     39.71223631	      0.69310928	    -16.97571697	    -20.74630929	      0.00000000	    -77.08866628	      6.43850032	      4.45292382	     42.05592706	     -7.80888995	    -23.42528535	     44.87693539	     50.18304471	      0.00000000	      0.00000000	     48.47142040	     15.21589432	    -29.44296310	     46.03166920	     48.46084280	      0.00000000	      0.00000000
      0.10000000	     28.27787722	     -2.65041412	     -0.64699732	      0.02318182	      1.33900360	     -0.00377750	     34.05420775	    -12.59430421	    -10.94587629	     96.04873976	      1.67636675	    -13.12823986	    -22.09365747	      0.00000000	      6.09362072	     -8.43948566	     -6.26636634	     38.21945207	      0.66705528	    -17.80082641	    -20.37944193	      0.00000000	    -76.98145028	      6.57766783	      4.65699041	     42.20476218	     -7.69106380	    -23.35469167	     44.80186857	     50.32143825	      0.00000000	      0.00000000	     48.38313935	     15.09305013	    -29.56188068	     46.09874557	     48.45351963	      0.00000000	      0.00000000
